<svg id="check" xmlns="http://www.w3.org/2000/svg" viewBox="0 0 43.19 43.19"><defs><style>.cls-1{fill:#48d8cf;}.cls-2{fill:#3d42df;}</style></defs><path id="Path_574" data-name="Path 574" class="cls-1" d="M19.05,27.94a2.56,2.56,0,0,1-1.79-.74l-3.81-3.82a2.54,2.54,0,0,1,3.6-3.59h0l2.14,2.15,7.1-6.09a2.54,2.54,0,0,1,3.31,3.81l-8.9,7.63A2.49,2.49,0,0,1,19.05,27.94Z" transform="translate(0 0)"/><path id="Path_575" data-name="Path 575" class="cls-2" d="M21.59,43.19a21.6,21.6,0,1,1,21.6-21.6h0A21.6,21.6,0,0,1,21.59,43.19Zm0-38.11A16.52,16.52,0,1,0,38.11,21.59h0A16.51,16.51,0,0,0,21.6,5.08Z" transform="translate(0 0)"/></svg>