<svg id="Group_4651" data-name="Group 4651" xmlns="http://www.w3.org/2000/svg" viewBox="0 0 62.51 62.52"><defs><style>.cls-1{fill:#3d42df;}.cls-2{fill:#48d8cf;}</style></defs><path id="Path_578" data-name="Path 578" class="cls-1" d="M62.5,31.25A31.1,31.1,0,0,1,57.2,48.6a2.44,2.44,0,0,1-4.06-2.71h0a26.19,26.19,0,1,0-8.25,7.93A2.44,2.44,0,0,1,47.42,58,31.26,31.26,0,1,1,62.5,31.25Z" transform="translate(0.01 0)"/><path id="Path_579" data-name="Path 579" class="cls-2" d="M30.55,12.05a2.45,2.45,0,0,0-2.44,2.45V29.31a4.88,4.88,0,0,0,3.7,8.94l6.47,6.47a2.44,2.44,0,0,0,3.46-3.45L35.27,34.8A4.89,4.89,0,0,0,33,29.31V14.5a2.45,2.45,0,0,0-2.44-2.45Z" transform="translate(0.01 0)"/></svg>