<svg id="Layer_1" data-name="Layer 1" xmlns="http://www.w3.org/2000/svg" viewBox="0 0 17.24 17.24"><defs><style>.cls-1{fill:#0e65f3;}.cls-2{fill:#48d7cf;}</style></defs><g id="Group_6473" data-name="Group 6473"><path id="clock" class="cls-1" d="M8.62,0a8.62,8.62,0,1,0,8.62,8.62h0A8.63,8.63,0,0,0,8.62,0Zm4.1,13.08a.72.72,0,0,1-1,0h0l-1.63-1.64-.57-.57L8.11,9.48A.71.71,0,0,1,7.9,9V4.31a.72.72,0,1,1,1.44,0h0V8.68l.52.53,1.49,1.48,1.37,1.37a.71.71,0,0,1,0,1Z" transform="translate(0)"/><path id="Path_4920" data-name="Path 4920" class="cls-2" d="M13.11,12.31l-1.48-1.42L10,9.35,9.45,8.8V4.27h0a.77.77,0,0,0-.78-.75.75.75,0,0,0-.77.75V9.11a.75.75,0,0,0,.22.53l1.5,1.44.61.59L12,13.37h0a.8.8,0,0,0,1.1,0h0a.72.72,0,0,0,0-1Z" transform="translate(0)"/></g></svg>