<svg id="Layer_1" data-name="Layer 1" xmlns="http://www.w3.org/2000/svg" viewBox="0 0 23.91 25"><defs><style>.cls-1{fill:#0e65f3;}</style></defs><g id="Group_4250" data-name="Group 4250"><path id="Path_3318" data-name="Path 3318" class="cls-1" d="M23.91,12A12,12,0,1,0,8.32,23.34l.14,0a.5.5,0,0,0,.27-.08A.44.44,0,0,0,9,23l3-9.56a1.5,1.5,0,0,0,1.49-1.51A1.49,1.49,0,0,0,12,10.46h0a1.43,1.43,0,0,0-.64.15l-4-4a.5.5,0,0,0-.7.1.48.48,0,0,0,0,.6l4,4a1.48,1.48,0,0,0,.42,1.8L8.16,22.23A11,11,0,1,1,16.41,22L16.1,20.5a.5.5,0,0,0-.6-.38.57.57,0,0,0-.22.11l-3,2.68a.5.5,0,0,0,0,.7.54.54,0,0,0,.22.15L16.29,25a.51.51,0,0,0,.63-.33.53.53,0,0,0,0-.25L16.62,23A11.9,11.9,0,0,0,23.91,12Zm-12-.5a.5.5,0,0,1,.5.5.5.5,0,0,1-.5.5.5.5,0,0,1-.5-.5.51.51,0,0,1,.5-.5ZM13.6,23.07l1.7-1.53.47,2.22Z" transform="translate(0 0)"/><path id="Path_3319" data-name="Path 3319" class="cls-1" d="M11.46,2.49v1A.5.5,0,0,0,12,4a.51.51,0,0,0,.5-.5v-1A.5.5,0,0,0,12,2,.5.5,0,0,0,11.46,2.49Z" transform="translate(0 0)"/><path id="Path_3320" data-name="Path 3320" class="cls-1" d="M2.49,11.45A.5.5,0,0,0,2,12a.5.5,0,0,0,.5.5h1A.5.5,0,0,0,4,12a.5.5,0,0,0-.5-.5Z" transform="translate(0 0)"/><path id="Path_3321" data-name="Path 3321" class="cls-1" d="M21.42,12.45a.5.5,0,0,0,0-1h-1a.5.5,0,0,0,0,1Z" transform="translate(0 0)"/></g></svg>