<svg id="Layer_1" data-name="Layer 1" xmlns="http://www.w3.org/2000/svg" viewBox="0 0 35.4 23.5"><defs><style>.cls-1{fill:#fff;fill-rule:evenodd;}</style></defs><path id="Path_4944" data-name="Path 4944" class="cls-1" d="M26.07,23.4a14.13,14.13,0,0,1-7-1.86,1,1,0,0,0-1.08,0c-4.8,2.37-9.6,2.91-14.31-.23A8.28,8.28,0,0,1,.4,12,6.43,6.43,0,0,1,6.59,7.63c.63,0,.82-.13.89-.79A8.07,8.07,0,0,1,14.61.05c5.44-.46,9.3,2,12,6.56.37.62.51,1.46,1,1.88s1.3-.11,2-.09a6.21,6.21,0,0,1,5.65,5.43,7.59,7.59,0,0,1-4.87,8.61,11.33,11.33,0,0,1-4.33,1M11,21.2a11.89,11.89,0,0,0,5-1c.55-.25.56-.42.11-.79a2.33,2.33,0,0,1-.8-1.17A1.34,1.34,0,0,1,16,16.7c.59-.23,1,.07,1.25.56a3.24,3.24,0,0,0,.52.71C21,21.17,26.69,22,30.46,19.5a5.53,5.53,0,0,0,1.9-7,2.86,2.86,0,0,0-3.74-1.53,2.8,2.8,0,0,0-.91.61,14.91,14.91,0,0,1-1.22,1,1.33,1.33,0,0,1-1.88,0,.69.69,0,0,1-.11-.13,1.21,1.21,0,0,1,.11-1.71,1.07,1.07,0,0,1,.32-.2A1.14,1.14,0,0,0,25.42,9l-.09-.14a10.16,10.16,0,0,0-8.84-6.37,5.73,5.73,0,0,0-6.38,4.32,2.91,2.91,0,0,0,.62,2.77,7.17,7.17,0,0,1,.87,1.25,1.15,1.15,0,0,1-.26,1.6l-.11.07a1.22,1.22,0,0,1-1.72-.25l0-.07c-.39-.51-.71-1.07-1.09-1.59a2,2,0,0,0-2.17-.9,4.17,4.17,0,0,0-3.08,2.2,5.75,5.75,0,0,0,1,6.4A9.67,9.67,0,0,0,11,21.21" transform="translate(-0.03 0)"/></svg>