<svg id="server-storage" xmlns="http://www.w3.org/2000/svg" viewBox="0 0 59.72 59.72"><defs><style>.cls-1{fill:#3d42df;}.cls-2{fill:#48d8cf;}</style></defs><path id="Path_580" data-name="Path 580" class="cls-1" d="M29.86,14.93C26.8,14.93,0,14.72,0,7.47S26.8,0,29.86,0,59.72.21,59.72,7.47,32.92,14.93,29.86,14.93ZM4,7.47C5.77,8.88,14.51,11.2,29.86,11.2S54,8.88,55.77,7.47C54,6.05,45.21,3.73,29.86,3.73S5.77,6.05,4,7.47Zm52.1.28h0Z" transform="translate(0)"/><path id="Path_581" data-name="Path 581" class="cls-1" d="M29.86,29.86C26.8,29.86,0,29.65,0,22.4a1.87,1.87,0,0,1,3.72-.22c1.15,1.38,10,3.95,26.14,3.95s25-2.57,26.14-3.95a1.87,1.87,0,0,1,3.72.21c0,7.26-26.8,7.47-29.86,7.47Z" transform="translate(0)"/><path id="Path_582" data-name="Path 582" class="cls-1" d="M29.86,44.79C26.8,44.79,0,44.58,0,37.32a1.87,1.87,0,0,1,3.72-.21c1.15,1.37,10,4,26.14,4s25-2.57,26.14-4a1.87,1.87,0,0,1,3.72.21c0,7.26-26.8,7.47-29.86,7.47Z" transform="translate(0)"/><path id="Path_583" data-name="Path 583" class="cls-1" d="M29.86,59.72C26.8,59.72,0,59.51,0,52.25V7.47a1.87,1.87,0,1,1,3.73,0h0V52.05c1.2,1.38,10,3.93,26.13,3.93S54.79,53.44,56,52.05V7.47a1.87,1.87,0,0,1,3.73,0h0V52.26C59.72,59.51,32.92,59.72,29.86,59.72Z" transform="translate(0)"/><ellipse id="Ellipse_52" data-name="Ellipse 52" class="cls-2" cx="12.47" cy="34.95" rx="2.36" ry="2.53"/><ellipse id="Ellipse_53" data-name="Ellipse 53" class="cls-2" cx="12.47" cy="19.79" rx="2.36" ry="2.53"/><ellipse id="Ellipse_54" data-name="Ellipse 54" class="cls-2" cx="12.47" cy="49.78" rx="2.36" ry="2.53"/></svg>