<svg id="Layer_1" data-name="Layer 1" xmlns="http://www.w3.org/2000/svg" viewBox="0 0 22.21 19.52"><defs><style>.cls-1{fill:#0e65f3;}.cls-2{fill:#48d7cf;}</style></defs><g id="fax"><path id="Path_4910" data-name="Path 4910" class="cls-1" d="M20.26,7.81H2A2,2,0,0,0,0,9.76v3.9a2,2,0,0,0,2,1.95H4.6V15a2,2,0,0,1,2-2h9.11a2,2,0,0,1,1.95,2v.65h2.65a2,2,0,0,0,1.95-1.95V9.76A2,2,0,0,0,20.26,7.81Zm-6.55,3.25a.65.65,0,1,1,.65-.65A.65.65,0,0,1,13.71,11.06Zm2.6,0a.65.65,0,1,1,.65-.65h0a.65.65,0,0,1-.65.65Z" transform="translate(0 0)"/><path id="Path_4911" data-name="Path 4911" class="cls-1" d="M14.36.07V2.6H16.9A3.27,3.27,0,0,0,14.36.07Z" transform="translate(0 0)"/><path id="Path_4912" data-name="Path 4912" class="cls-1" d="M5.9,0a.65.65,0,0,0-.65.65h0V6.51H17V3.9H13.71a.65.65,0,0,1-.65-.65h0V0Z" transform="translate(0 0)"/><path id="Path_4913" data-name="Path 4913" class="cls-2" d="M15.66,19.52a.65.65,0,0,0,.65-.65h0V15a.65.65,0,0,0-.65-.65H6.55A.65.65,0,0,0,5.9,15h0v3.9a.65.65,0,0,0,.65.65h9.11ZM8.5,16.27h5.21a.65.65,0,0,1,.69.61.66.66,0,0,1-.62.69H8.5a.65.65,0,1,1-.07-1.3Z" transform="translate(0 0)"/></g></svg>