<svg id="Layer_1" data-name="Layer 1" xmlns="http://www.w3.org/2000/svg" viewBox="0 0 65.83 59.36"><defs><style>.cls-1{fill:#20cfc5;opacity:0.82;isolation:isolate;}.cls-2{fill:#0e65f3;}</style></defs><g id="Group"><path id="Path_21" data-name="Path 21" class="cls-1" d="M34.86,21.1l-5.6-1.83c2.26-6.61,5.88-10.74,10.93-12,2.64-.65,6.62-4.79,6.62-7.3h5.9c0,5.18-5.85,11.61-11.09,12.89C38.82,13.58,36.53,16.18,34.86,21.1Z" transform="translate(0)"/><path id="Combined_Shape" data-name="Combined Shape" class="cls-2" d="M9.54,59.36a7.84,7.84,0,0,1-5.41-2.17L2.75,55.88A8.89,8.89,0,0,1,.72,46L10.34,23.5a8.82,8.82,0,0,1,2.53-3.36,4.47,4.47,0,0,1,3.61-1.82h.16a8.69,8.69,0,0,1,3.73,0H45.11a8.93,8.93,0,0,1,3.64,0H49a4.5,4.5,0,0,1,3.6,1.81,9,9,0,0,1,2.5,3.27l10,22.5a8.91,8.91,0,0,1-2,10l-1.31,1.25a7.84,7.84,0,0,1-11.08-.27,1.29,1.29,0,0,1-.16-.17l-8.1-9h-19l-8.1,9A7.9,7.9,0,0,1,9.54,59.36ZM41.59,33a2.95,2.95,0,1,0,3,2.95A2.95,2.95,0,0,0,41.59,33ZM20.87,27.15A5.89,5.89,0,1,0,26.79,33,5.87,5.87,0,0,0,20.87,27.15Zm26.64,0a2.94,2.94,0,1,0,3,2.94A2.93,2.93,0,0,0,47.51,27.15Z" transform="translate(0)"/></g></svg>