<svg id="Layer_1" data-name="Layer 1" xmlns="http://www.w3.org/2000/svg" viewBox="0 0 51.96 60.75"><defs><style>.cls-1{fill:#0e65f3;stroke:#0e65f3;}.cls-2{fill:#48d7cf;}</style></defs><g id="secure-shield"><g id="Group_4626" data-name="Group 4626"><g id="Group_4625" data-name="Group 4625"><path id="Path_526" data-name="Path 526" class="cls-1" d="M50.53,10.84A99,99,0,0,1,26.62.69a1.27,1.27,0,0,0-1.28,0A96.3,96.3,0,0,1,1.42,10.84,1.25,1.25,0,0,0,.5,12.05V24.89a37,37,0,0,0,11.22,27c5.51,5.4,11.93,8.38,14.26,8.38s8.75-3,14.26-8.38a37,37,0,0,0,11.22-27V12.05A1.25,1.25,0,0,0,50.53,10.84ZM48.94,24.89a34.47,34.47,0,0,1-10.46,25.2C33.06,55.4,27.27,57.76,26,57.76s-7.08-2.36-12.5-7.67A34.48,34.48,0,0,1,3,24.89V13A98.4,98.4,0,0,0,26,3.23a101.7,101.7,0,0,0,23,9.77Z" transform="translate(0 -0.02)"/><path id="Path_527" data-name="Path 527" class="cls-2" d="M14.84,12.86a1.27,1.27,0,0,0-1.63-.71C11,13,8.66,13.85,6.36,14.58a1.25,1.25,0,0,0-.88,1.2v4.84a1.26,1.26,0,1,0,2.51,0H8V16.69c2.06-.67,4.13-1.41,6.14-2.2A1.27,1.27,0,0,0,14.84,12.86Z" transform="translate(0 -0.02)"/><path id="Path_528" data-name="Path 528" class="cls-2" d="M17.23,13.1a1.24,1.24,0,0,0,.5-.1h0a1.26,1.26,0,0,0-1-2.3h0a1.25,1.25,0,0,0-.64,1.65,1.23,1.23,0,0,0,1.15.75Z" transform="translate(0 -0.02)"/><path id="Path_529" data-name="Path 529" class="cls-2" d="M41,41.05a1.24,1.24,0,0,0-1.73.36h0a29.58,29.58,0,0,1-3.61,4.52,31.19,31.19,0,0,1-3.6,3.2,1.27,1.27,0,0,0-.24,1.77,1.25,1.25,0,0,0,1.76.23,35.39,35.39,0,0,0,3.89-3.45,33.54,33.54,0,0,0,3.91-4.89A1.26,1.26,0,0,0,41,41.05Z" transform="translate(0 -0.02)"/><path id="Path_530" data-name="Path 530" class="cls-2" d="M29.08,51.1l-.07,0a1.26,1.26,0,1,0,1.2,2.21l.06,0,.08,0a1.26,1.26,0,0,0-1.23-2.19l0,0Z" transform="translate(0 -0.02)"/><path id="Path_531" data-name="Path 531" class="cls-2" d="M17.42,27.83a4.09,4.09,0,1,0-5.78,5.78L19.06,41a4.08,4.08,0,0,0,5.78,0L40.33,25.54a4.09,4.09,0,1,0-5.78-5.78h0L22,32.36Zm18.91-6.29a1.57,1.57,0,1,1,2.22,2.22L23.06,39.26a1.59,1.59,0,0,1-2.23,0l-7.42-7.42a1.58,1.58,0,0,1,2.23-2.23L21.06,35a1.25,1.25,0,0,0,1.77,0Z" transform="translate(0 -0.02)"/></g></g></g></svg>