<svg id="Layer_1" data-name="Layer 1" xmlns="http://www.w3.org/2000/svg" viewBox="0 0 66.47 66.48"><defs><style>.cls-1{fill:#0e65f3;}.cls-2{fill:#48d8cf;}</style></defs><g id="settings"><g id="Group_4628" data-name="Group 4628"><path id="Path_536" data-name="Path 536" class="cls-1" d="M63.07,26.26l-4.66-.79a26.38,26.38,0,0,0-1.88-4.53l2.75-3.84a4.1,4.1,0,0,0-.44-5.29L54.7,7.66a4.09,4.09,0,0,0-2.9-1.2,4,4,0,0,0-2.38.76L45.56,10A26.29,26.29,0,0,0,40.87,8l-.78-4.61A4.1,4.1,0,0,0,36,0H30.19a4.1,4.1,0,0,0-4.06,3.43l-.8,4.72a25.5,25.5,0,0,0-4.51,1.9L17,7.3a4.1,4.1,0,0,0-5.29.45L7.55,11.89a4.11,4.11,0,0,0-.44,5.29l2.78,3.9A25.59,25.59,0,0,0,8,25.62l-4.61.78A4.1,4.1,0,0,0,0,30.45V36.3a4.09,4.09,0,0,0,3.43,4.05l4.72.81a26.26,26.26,0,0,0,1.9,4.51l-2.74,3.8a4.09,4.09,0,0,0,.45,5.29l4.14,4.15a4.09,4.09,0,0,0,2.9,1.2,4,4,0,0,0,2.37-.76l3.9-2.78a26.18,26.18,0,0,0,4.39,1.81L26.24,63a4.09,4.09,0,0,0,4.06,3.43h5.86A4.08,4.08,0,0,0,40.21,63L41,58.38a27.2,27.2,0,0,0,4.53-1.88l3.85,2.75a4.09,4.09,0,0,0,2.39.76h0a4.06,4.06,0,0,0,2.9-1.21l4.14-4.13a4.13,4.13,0,0,0,.44-5.3L56.5,45.52A26.38,26.38,0,0,0,58.38,41L63,40.21a4.09,4.09,0,0,0,3.43-4.05V30.31A4,4,0,0,0,63.07,26.26Zm-.32,9.9a.36.36,0,0,1-.3.36l-5.84,1a1.88,1.88,0,0,0-1.5,1.38,22.1,22.1,0,0,1-2.41,5.82,1.89,1.89,0,0,0,.08,2l3.43,4.83a.38.38,0,0,1,0,.47L52,56.17a.36.36,0,0,1-.26.11.31.31,0,0,1-.21-.07l-4.82-3.43a1.87,1.87,0,0,0-2-.08,22.18,22.18,0,0,1-5.82,2.42,1.8,1.8,0,0,0-1.37,1.5l-1,5.83a.36.36,0,0,1-.36.3H30.31a.36.36,0,0,1-.36-.3l-1-5.83a1.86,1.86,0,0,0-1.37-1.5,23.44,23.44,0,0,1-5.7-2.34,1.91,1.91,0,0,0-.94-.25,1.81,1.81,0,0,0-1.08.35L15,56.34a.58.58,0,0,1-.21.07.39.39,0,0,1-.27-.11l-4.13-4.14a.38.38,0,0,1-.05-.47l3.42-4.79a1.9,1.9,0,0,0,.08-2.06A21.78,21.78,0,0,1,11.43,39a1.9,1.9,0,0,0-1.5-1.37l-5.88-1a.37.37,0,0,1-.3-.36V30.45a.37.37,0,0,1,.3-.36l5.79-1a1.89,1.89,0,0,0,1.52-1.39,22.26,22.26,0,0,1,2.37-5.83,1.83,1.83,0,0,0-.1-2L10.18,15a.36.36,0,0,1,0-.47l4.14-4.14a.36.36,0,0,1,.26-.11.31.31,0,0,1,.21.07l4.79,3.41a1.92,1.92,0,0,0,2.06.09,21.8,21.8,0,0,1,5.8-2.45,1.88,1.88,0,0,0,1.37-1.5l1-5.87a.37.37,0,0,1,.36-.31h5.85a.37.37,0,0,1,.36.31l1,5.79a1.89,1.89,0,0,0,1.39,1.52,22.28,22.28,0,0,1,6,2.44,1.89,1.89,0,0,0,2-.08l4.79-3.45a.48.48,0,0,1,.21-.07.36.36,0,0,1,.26.11l4.14,4.14a.39.39,0,0,1,0,.48L52.8,19.73a1.87,1.87,0,0,0-.08,2,22.44,22.44,0,0,1,2.41,5.82A1.85,1.85,0,0,0,56.63,29l5.84,1a.37.37,0,0,1,.3.36v5.85Z" transform="translate(0 0)"/><path id="Path_537" data-name="Path 537" class="cls-2" d="M33.24,18.88A14.35,14.35,0,1,0,47.59,33.23,14.35,14.35,0,0,0,33.24,18.88Zm0,24.94a10.6,10.6,0,1,1,10.6-10.6,10.6,10.6,0,0,1-10.6,10.6Z" transform="translate(0 0)"/></g></g></svg>