<svg id="Layer_1" data-name="Layer 1" xmlns="http://www.w3.org/2000/svg" viewBox="0 0 78.98 58.52"><defs><style>.cls-1{fill:#0e65f3;stroke:#0e65f3;}.cls-2,.cls-3{fill:#48d7cf;}.cls-3{fill-rule:evenodd;}</style></defs><g id="Group_4627" data-name="Group 4627"><g id="moving-truck"><path id="Path_532" data-name="Path 532" class="cls-1" d="M2.37,41V30.91a5,5,0,0,1,1.76-3.85L5.36,26a2.77,2.77,0,0,0,.92-1.6L9,9.71a5.08,5.08,0,0,1,5-4.14H25.87V3.93A3.43,3.43,0,0,1,29.29.5H63.06a1.14,1.14,0,1,1,0,2.28H29.29a1.15,1.15,0,0,0-1.14,1.15v36.7h28A10,10,0,0,1,68.55,39.5V36.41A3.44,3.44,0,0,1,72,33h2.35v-29a1.15,1.15,0,0,0-1.15-1.14H67.63a1.15,1.15,0,0,1-1.14-1.15A1.14,1.14,0,0,1,67.63.5h5.55a3.43,3.43,0,0,1,3.43,3.43V41a3.46,3.46,0,0,1,1.87,3.05v2.41a3.45,3.45,0,0,1-3.43,3.43H72.93a10.08,10.08,0,0,1-19.77,0H40.46a1.15,1.15,0,0,1,0-2.29H53a10.21,10.21,0,0,1,1.34-4.7H24.66A10,10,0,0,1,26,47.61h9.9A1.14,1.14,0,0,1,37,48.75,1.15,1.15,0,0,1,35.9,49.9H25.82a10.08,10.08,0,0,1-19.77,0H3.93A3.44,3.44,0,0,1,.5,46.47V44.06A3.41,3.41,0,0,1,2.37,41Zm2.28-.38H8.14V38A1.14,1.14,0,0,0,7,36.9H4.65ZM8.47,25.08H19.74a.68.68,0,0,0,.69-.68v-9a.69.69,0,0,0-.69-.69H10.43S8.49,25,8.47,25.08ZM25.87,7.85H14a2.8,2.8,0,0,0-2.74,2.28l-.43,2.3h8.88a3,3,0,0,1,3,3v9a3,3,0,0,1-3,3H7.22c-.11.13-1.6,1.42-1.6,1.42a2.83,2.83,0,0,0-1,2.12v3.71H7A3.43,3.43,0,0,1,10.43,38v1.47a10,10,0,0,1,12.43,1.12h3V7.85Zm45,28.57v4.21h3.5V35.27H72a1.16,1.16,0,0,0-1.15,1.15Zm5.36,10V44.06a1.15,1.15,0,0,0-1.14-1.15H71.77a10,10,0,0,1,1.34,4.7h1.94a1.14,1.14,0,0,0,1.14-1.14ZM63,55.73a7.79,7.79,0,1,0-7.79-7.79A7.79,7.79,0,0,0,63,55.73Zm-47.11,0a7.79,7.79,0,1,0-7.79-7.79A7.78,7.78,0,0,0,15.93,55.73ZM2.78,46.47a1.15,1.15,0,0,0,1.15,1.14H5.86a10.21,10.21,0,0,1,1.34-4.7H3.93a1.14,1.14,0,0,0-1.14,1.14Z"/><path id="Path_533" data-name="Path 533" class="cls-2" d="M63,43.22a4.72,4.72,0,1,1-4.71,4.72A4.72,4.72,0,0,1,63,43.22Zm0,7.15a2.43,2.43,0,1,0-2.43-2.43A2.43,2.43,0,0,0,63,50.37Z"/><path id="Path_534" data-name="Path 534" class="cls-2" d="M15.93,43.22a4.72,4.72,0,1,1-4.71,4.72A4.72,4.72,0,0,1,15.93,43.22Zm0,7.15a2.43,2.43,0,1,0-2.43-2.43,2.43,2.43,0,0,0,2.43,2.43Z"/></g><path id="Path_535" data-name="Path 535" class="cls-3" d="M56.92,32.17A11.94,11.94,0,0,1,51,30.61a.85.85,0,0,0-.92,0c-4.05,2-8.1,2.46-12.06-.2a7,7,0,0,1-2.77-7.86,5.41,5.41,0,0,1,5.22-3.68c.53,0,.69-.1.75-.67a6.77,6.77,0,0,1,6-5.71c4.59-.39,7.84,1.68,10.12,5.52.31.53.43,1.24.86,1.59s1.1-.1,1.68-.08a5.24,5.24,0,0,1,4.77,4.58,6.41,6.41,0,0,1-4.11,7.26,9.37,9.37,0,0,1-3.65.81M44.17,30.32a10,10,0,0,0,4.2-.87c.46-.21.47-.35.1-.66a1.88,1.88,0,0,1-.68-1,1.13,1.13,0,0,1,.66-1.27c.5-.19.81.06,1.06.47a2.85,2.85,0,0,0,.43.6c2.69,2.7,7.5,3.42,10.67,1.29A4.65,4.65,0,0,0,62.22,23a2.42,2.42,0,0,0-3.15-1.29,2.35,2.35,0,0,0-.77.51,12.27,12.27,0,0,1-1,.88,1.13,1.13,0,0,1-1.59,0L55.59,23a1,1,0,0,1,.1-1.44,1.06,1.06,0,0,1,.26-.17,1,1,0,0,0,.41-1.29.35.35,0,0,0-.07-.12,8.57,8.57,0,0,0-7.45-5.38,4.85,4.85,0,0,0-5.39,3.64A2.46,2.46,0,0,0,44,20.54a5.88,5.88,0,0,1,.73,1.06A1,1,0,0,1,44.5,23l-.1.06A1,1,0,0,1,43,22.8a.43.43,0,0,1,0-.07c-.33-.43-.6-.9-.92-1.34a1.71,1.71,0,0,0-1.82-.75,3.46,3.46,0,0,0-2.6,1.85,4.85,4.85,0,0,0,.82,5.39,8.12,8.12,0,0,0,5.78,2.44"/></g></svg>