<svg id="internet" xmlns="http://www.w3.org/2000/svg" viewBox="0 0 66.39 66.38"><defs><style>.cls-1{fill:#0e65f3;}.cls-2{fill:#48d7cf;}</style></defs><g id="Group_4624" data-name="Group 4624"><g id="Group_4623" data-name="Group 4623"><path id="Path_519" data-name="Path 519" class="cls-1" d="M50.34,49.41A23.58,23.58,0,1,0,33.19,56.8,23.59,23.59,0,0,0,50.34,49.41Zm-9.89,3.14a22.63,22.63,0,0,0,3-5.64,23.82,23.82,0,0,1,3.47,1.72A20.51,20.51,0,0,1,40.45,52.55ZM49,46.46a26.32,26.32,0,0,0-4.68-2.36,40.65,40.65,0,0,0,1.35-9.43h8.1A20.53,20.53,0,0,1,49,46.46ZM53.8,31.72H45.7a41.67,41.67,0,0,0-1.35-9.43A26.23,26.23,0,0,0,49,19.93,20.58,20.58,0,0,1,53.8,31.72Zm-6.88-14a23.77,23.77,0,0,1-3.47,1.71,22.57,22.57,0,0,0-3-5.63,20.33,20.33,0,0,1,6.47,3.92Zm-12.28-5c1.84.66,3.62,2.55,5,5.4.35.72.67,1.45,1,2.2a28.32,28.32,0,0,1-6,1V12.8Zm0,11.5a31.5,31.5,0,0,0,6.9-1.08,38.13,38.13,0,0,1,1.2,8.5h-8.1V24.31Zm0,10.37h8.09a38.21,38.21,0,0,1-1.2,8.5,30.92,30.92,0,0,0-6.9-1.09V34.67Zm0,10.36a28.3,28.3,0,0,1,6,.94,23.91,23.91,0,0,1-1,2.2c-1.43,2.86-3.21,4.74-5,5.4V45Zm-8.7-31.2a22.46,22.46,0,0,0-3,5.66,24.5,24.5,0,0,1-3.49-1.71,20.34,20.34,0,0,1,6.5-3.94ZM17.35,20A26.66,26.66,0,0,0,22,22.31a42.05,42.05,0,0,0-1.34,9.41h-8.1A20.56,20.56,0,0,1,17.34,20ZM12.59,34.67h8.1A42.13,42.13,0,0,0,22,44.08a26.75,26.75,0,0,0-4.69,2.36A20.61,20.61,0,0,1,12.59,34.67Zm6.85,13.94a24.56,24.56,0,0,1,3.49-1.72,22.46,22.46,0,0,0,3,5.66,20.7,20.7,0,0,1-6.5-3.94Zm12.25,5c-1.82-.68-3.58-2.56-5-5.39a22.7,22.7,0,0,1-1-2.21,27.94,27.94,0,0,1,6-.94Zm0-11.49a31,31,0,0,0-6.84,1.07,38,38,0,0,1-1.2-8.48h8Zm0-10.36h-8a38,38,0,0,1,1.2-8.49,31.65,31.65,0,0,0,6.85,1.08Zm0-10.37a28.58,28.58,0,0,1-6-.93,24,24,0,0,1,1-2.22c1.41-2.82,3.17-4.7,5-5.38Z" transform="translate(0 0)"/><path id="Path_520" data-name="Path 520" class="cls-2" d="M59.36,12.77A1.47,1.47,0,1,0,57,14.59l.32.42a1.48,1.48,0,1,0,2.36-1.78Z" transform="translate(0 0)"/><path id="Path_521" data-name="Path 521" class="cls-2" d="M63.26,19.12a1.47,1.47,0,1,0-2.67,1.25A30.24,30.24,0,0,1,62.66,40a1.48,1.48,0,0,0,2.88.67,33.74,33.74,0,0,0,.85-7.49A32.91,32.91,0,0,0,63.26,19.12Z" transform="translate(0 0)"/><path id="Path_522" data-name="Path 522" class="cls-2" d="M13.45,56.1c-.3-.26-.6-.52-.89-.8a1.48,1.48,0,1,0-2,2.16c.31.3.64.59,1,.87a1.47,1.47,0,0,0,1.93-2.23Z" transform="translate(0 0)"/><path id="Path_523" data-name="Path 523" class="cls-2" d="M3,33.19a30.74,30.74,0,0,1,.77-6.82,1.47,1.47,0,1,0-2.87-.66,33.31,33.31,0,0,0,3.56,24A1.48,1.48,0,0,0,7,48.26,30.17,30.17,0,0,1,3,33.19Z" transform="translate(0 0)"/><path id="Path_524" data-name="Path 524" class="cls-2" d="M56.08,54l-5.5-.09a1.48,1.48,0,0,0,0,2.95l1.5,0a30.31,30.31,0,0,1-30.92,4.07,1.48,1.48,0,0,0-1.18,2.7,33.23,33.23,0,0,0,33.89-4.44l-.27,1.37a1.48,1.48,0,0,0,2.9.57l1.06-5.41A1.47,1.47,0,0,0,56.35,54l-.26,0Z" transform="translate(0 0)"/><path id="Path_525" data-name="Path 525" class="cls-2" d="M15.87,12.6h0a1.48,1.48,0,1,0,0-2.95l-1.67,0a30.23,30.23,0,0,1,38.11.16,1.48,1.48,0,0,0,1.87-2.28,33.18,33.18,0,0,0-41.56-.39l.23-1.2A1.47,1.47,0,0,0,10,5.35l-1.07,5.4a1.49,1.49,0,0,0,1.17,1.74l.26,0Z" transform="translate(0 0)"/></g></g></svg>