<svg id="Layer_1" data-name="Layer 1" xmlns="http://www.w3.org/2000/svg" viewBox="0 0 79.6 79.5"><defs><style>.cls-1{fill:#1aaaa1;}.cls-2{fill:#0e65f3;}</style></defs><g id="server"><path id="Path_567" data-name="Path 567" class="cls-1" d="M6.62,21.2H25.17A6.63,6.63,0,1,0,25.33,8h-.16A8,8,0,0,0,10.28,4.07a5.67,5.67,0,0,0-1-.1A5.32,5.32,0,0,0,4,8.48,6.62,6.62,0,0,0,6.62,21.2Zm-1-10.47a1.32,1.32,0,0,0,1-1.47A2.64,2.64,0,0,1,9.27,6.63a2.48,2.48,0,0,1,1.14.26,1.32,1.32,0,0,0,1.77-.61l.06-.13A5.3,5.3,0,0,1,22.52,8a5.19,5.19,0,0,1-.15,1.24,1.33,1.33,0,0,0,1,1.6,1.39,1.39,0,0,0,.7,0,3.84,3.84,0,0,1,1.12-.16,4,4,0,1,1,0,8H6.62a4,4,0,0,1-1-7.82Z" transform="translate(0.02 0)"/><path id="Path_568" data-name="Path 568" class="cls-1" d="M54.32,21.2H72.88A6.63,6.63,0,0,0,73,8h-.16A8,8,0,0,0,58,4.07,5.87,5.87,0,0,0,57,4a5.31,5.31,0,0,0-5.23,4.51A6.62,6.62,0,0,0,54.33,21.2Zm-1-10.46a1.32,1.32,0,0,0,1-1.47A2.66,2.66,0,0,1,57,6.63a2.69,2.69,0,0,1,1.15.26,1.32,1.32,0,0,0,1.77-.61.5.5,0,0,0,0-.13A5.3,5.3,0,0,1,70.22,8a5.68,5.68,0,0,1-.14,1.24,1.33,1.33,0,0,0,1,1.6,1.24,1.24,0,0,0,.69,0,4,4,0,1,1,1.13,7.78H54.32a4,4,0,0,1-1-7.82Z" transform="translate(0.02 0)"/><path id="Path_569" data-name="Path 569" class="cls-1" d="M25.17,66.26a8,8,0,0,0-14.89-3.88,4.87,4.87,0,0,0-1-.1A5.3,5.3,0,0,0,4,66.78,6.63,6.63,0,0,0,6.62,79.51H25.17a6.63,6.63,0,0,0,0-13.25Zm0,10.6H6.62a4,4,0,0,1-1-7.82,1.32,1.32,0,0,0,1-1.47,2.65,2.65,0,0,1,2.65-2.64,2.61,2.61,0,0,1,1.14.26,1.33,1.33,0,0,0,1.77-.6l.06-.14a5.3,5.3,0,0,1,10.13,3,1.32,1.32,0,0,0,1,1.59,1.28,1.28,0,0,0,.7,0,3.85,3.85,0,0,1,1.12-.17,4,4,0,1,1,0,7.95Z" transform="translate(0.02 0)"/><path id="Path_570" data-name="Path 570" class="cls-1" d="M72.88,66.26A8,8,0,0,0,58,62.38a5,5,0,0,0-1-.1,5.29,5.29,0,0,0-5.23,4.5A6.62,6.62,0,0,0,54.33,79.5H72.88a6.63,6.63,0,0,0,0-13.25Zm0,10.6H54.32a4,4,0,0,1-1-7.82,1.31,1.31,0,0,0,1-1.47A2.66,2.66,0,0,1,57,64.93a2.69,2.69,0,0,1,1.15.26,1.33,1.33,0,0,0,1.77-.6.78.78,0,0,0,0-.14,5.3,5.3,0,0,1,10.28,1.8,5.84,5.84,0,0,1-.14,1.25,1.32,1.32,0,0,0,1,1.59,1.24,1.24,0,0,0,.69,0,4,4,0,1,1,1.13,7.78Z" transform="translate(0.02 0)"/><path id="Path_571" data-name="Path 571" class="cls-2" d="M54.32,51.68V30.48c0-3.64-7.55-5.3-14.57-5.3s-14.58,1.66-14.58,5.3v21.2c0,3.64,7.55,5.3,14.58,5.3S54.32,55.32,54.32,51.68ZM47.67,48.2l-.66.15-.64.12-.31.06a40.12,40.12,0,0,1-12.66,0l-.16,0-.8-.15-.51-.12-.34-.08L31,48l-.06,0a15.09,15.09,0,0,1-1.67-.59,3.51,3.51,0,0,1-1.37-.91.56.56,0,0,1-.05-.08V44.33a12.51,12.51,0,0,0,1.62.66,22.35,22.35,0,0,0,2.56.66l.2,0,.94.17.45.07.77.11.62.08.67.07.74.06.6,0,.87,0,.5,0c.47,0,.93,0,1.39,0s.93,0,1.39,0l.5,0,.88,0,.6,0,.74-.06.67-.07.62-.07.77-.11.45-.07,1-.18.18,0A22.39,22.39,0,0,0,50.05,45a11.45,11.45,0,0,0,1.62-.66v2a.41.41,0,0,1-.05.09,2.67,2.67,0,0,1-.84.65,13.47,13.47,0,0,1-3,1.06ZM28.51,34c.29.12.6.24.93.35a38.8,38.8,0,0,0,20.62,0c.32-.11.63-.22.92-.35l.29-.13.41-.18v2l0,.09a2.71,2.71,0,0,1-.85.65,13.39,13.39,0,0,1-3,1.06l-.15,0-.66.15-.64.13-.3.05a40.18,40.18,0,0,1-12.67,0l-.16,0-.8-.15-.52-.12-.33-.08L31,37.37H30.9a15.77,15.77,0,0,1-1.67-.6,3.74,3.74,0,0,1-1.37-.91l-.05-.08V33.72l.43.19.26.12Zm3.68,6.36.94.17.46.07.76.11.63.07.66.07.74.07.6,0,.88,0,.5,0,1.39,0,1.39,0,.5,0,.87,0,.6,0,.74-.07.67-.07.62-.07.77-.11.45-.07q.49-.08,1-.18l.18,0a22.9,22.9,0,0,0,2.56-.66A13.33,13.33,0,0,0,51.67,39v2a.2.2,0,0,1-.05.09,2.67,2.67,0,0,1-.84.65,13.08,13.08,0,0,1-3,1.06l-.15,0-.66.15-.64.12-.3.06a40.72,40.72,0,0,1-12.66,0l-.16,0-.8-.16-.52-.11-.34-.08L31,42.68l-.06,0a12.67,12.67,0,0,1-1.66-.6,3.47,3.47,0,0,1-1.38-.91.2.2,0,0,1,0-.08V39a11.45,11.45,0,0,0,1.62.66,20.81,20.81,0,0,0,2.55.67Zm7.56-12.56c7.68,0,11.65,1.9,11.92,2.65l0,0s0,0,0,0l-.06.06,0,.06-.09.08-.08.07-.12.09-.12.09-.17.1-.16.1-.23.12-.18.1-.33.13-.2.09c-.19.07-.39.15-.62.22a36.22,36.22,0,0,1-18.94,0c-1.85-.62-2.4-1.22-2.46-1.38.24-.75,4.21-2.66,11.93-2.66Zm0,26.5C32,54.33,28,52.39,27.82,51.68V49.62a14.18,14.18,0,0,0,1.62.67A22.35,22.35,0,0,0,32,51l.2,0,.93.17.46.07.76.11.63.08.66.07.75.06.6,0,.87,0,.5,0,1.39,0,1.39,0,.5,0,.87,0,.6,0,.74-.06.67-.08.63-.07.77-.11.45-.07,1-.17.18,0a22.9,22.9,0,0,0,2.56-.66,14.11,14.11,0,0,0,1.62-.66v2c-.2.73-4.17,2.67-11.93,2.67Z" transform="translate(0.02 0)"/><path id="Path_572" data-name="Path 572" class="cls-2" d="M13.25,57V43.48a4,4,0,0,0,2.4-2.41h6.87V38.42H15.65A4,4,0,0,0,13.24,36V23.85H10.59V36a4,4,0,0,0,0,7.46V57ZM11.92,38.43a1.33,1.33,0,1,1-1.32,1.32h0A1.32,1.32,0,0,1,11.92,38.43Z" transform="translate(0.02 0)"/><path id="Path_573" data-name="Path 573" class="cls-2" d="M68.9,55.65V43.48a4,4,0,0,0,0-7.46V23.85H66.25V36a4,4,0,0,0-2.41,2.41H57v2.65h6.87a4,4,0,0,0,2.41,2.4V55.65ZM67.57,38.43a1.33,1.33,0,1,1-1.32,1.32,1.32,1.32,0,0,1,1.32-1.32h0Z" transform="translate(0.02 0)"/></g></svg>