<svg id="Layer_1" data-name="Layer 1" xmlns="http://www.w3.org/2000/svg" viewBox="0 0 133.77 61.27"><defs><style>.cls-1{fill:#0e65f3;}.cls-2{fill:#1aaaa1;}</style></defs><g id="Group_4634" data-name="Group 4634"><g id="server"><g id="Group_4633" data-name="Group 4633"><path id="Path_543" data-name="Path 543" class="cls-1" d="M89.15,19a2.22,2.22,0,0,0,2.22-2.23V2.23A2.22,2.22,0,0,0,89.15,0h-4.8a1.24,1.24,0,0,0,0,2.48H88.9v14H44.48v-14H78.64a1.24,1.24,0,0,0,0-2.48H44.23A2.23,2.23,0,0,0,42,2.23V16.76A2.23,2.23,0,0,0,44.23,19H49v2.15H44.23A2.23,2.23,0,0,0,42,23.37v4.75a1.24,1.24,0,0,0,2.48,0V23.61H88.9v14H44.48V34.08a1.24,1.24,0,0,0-2.48,0V37.9a2.23,2.23,0,0,0,2.23,2.23H49v2.15H44.23A2.23,2.23,0,0,0,42,44.51V59a2.23,2.23,0,0,0,2.23,2.23H89.15A2.22,2.22,0,0,0,91.37,59V44.51a2.22,2.22,0,0,0-2.22-2.23H84.42V40.13h4.73a2.22,2.22,0,0,0,2.22-2.23V23.37a2.22,2.22,0,0,0-2.22-2.23H84.42V19Zm-.25,39.8H44.48v-14H88.9Zm-7-16.51H51.43V40.13H81.94Zm0-21.14H51.43V19H81.94Z" transform="translate(0)"/><path id="Path_546" data-name="Path 546" class="cls-2" d="M50.71,7.43v4a3.72,3.72,0,0,0,7.44,0v-4a3.72,3.72,0,0,0-7.44,0Zm5,0v4a1.24,1.24,0,0,1-2.48,0v-4a1.24,1.24,0,0,1,2.48,0Z" transform="translate(0)"/><path id="Path_547" data-name="Path 547" class="cls-2" d="M58.15,32.62v-4a3.72,3.72,0,0,0-7.44,0v4a3.72,3.72,0,0,0,7.44,0Zm-5,0v-4a1.24,1.24,0,0,1,2.48,0v4a1.24,1.24,0,0,1-2.48,0Z" transform="translate(0)"/><path id="Path_548" data-name="Path 548" class="cls-2" d="M54.43,46.07a3.74,3.74,0,0,0-3.72,3.72v4a3.72,3.72,0,0,0,7.44,0v-4A3.74,3.74,0,0,0,54.43,46.07Zm1.24,7.68a1.24,1.24,0,0,1-2.48,0v-4a1.24,1.24,0,0,1,2.48,0Z" transform="translate(0)"/><path id="Path_549" data-name="Path 549" class="cls-2" d="M61.21,9.5a3.56,3.56,0,0,0,3.55,3.55H80.28a3.55,3.55,0,0,0,0-7.1H64.76A3.55,3.55,0,0,0,61.21,9.5Zm20.14,0a1.07,1.07,0,0,1-1.07,1.07H64.76a1.08,1.08,0,1,1,0-2.15H80.28A1.07,1.07,0,0,1,81.35,9.5Z" transform="translate(0)"/><path id="Path_550" data-name="Path 550" class="cls-2" d="M80.28,34.18a3.55,3.55,0,0,0,0-7.1H64.76a3.55,3.55,0,0,0,0,7.1Zm-16.6-3.55a1.07,1.07,0,0,1,1.07-1.07H80.27a1.08,1.08,0,1,1,0,2.15H64.76a1.08,1.08,0,0,1-1.08-1.08Z" transform="translate(0)"/><path id="Path_551" data-name="Path 551" class="cls-2" d="M80.28,48.22H64.76a3.55,3.55,0,0,0,0,7.1h8a1.24,1.24,0,0,0,0-2.48h-8a1.07,1.07,0,1,1,0-2.14H80.28a1.07,1.07,0,0,1,0,2.14H78.59a1.24,1.24,0,0,0,0,2.48h1.69a3.55,3.55,0,0,0,0-7.1Z" transform="translate(0)"/></g></g><g id="server-2"><g id="Group_4633-2" data-name="Group 4633-2"><path id="Path_543-2" data-name="Path 543-2" class="cls-1" d="M132.07,28.92a1.7,1.7,0,0,0,1.7-1.7V16.1a1.71,1.71,0,0,0-1.7-1.71H128.4a.95.95,0,0,0,0,1.9h3.48V27h-34V16.29H124a1,1,0,0,0,0-1.9H97.71A1.71,1.71,0,0,0,96,16.1V27.22a1.7,1.7,0,0,0,1.71,1.7h3.61v1.65H97.71A1.7,1.7,0,0,0,96,32.27v3.64a1,1,0,0,0,1.9,0V32.46h34V43.2h-34V40.47a.95.95,0,0,0-1.9,0v2.92a1.7,1.7,0,0,0,1.71,1.71h3.61v1.64H97.71A1.71,1.71,0,0,0,96,48.44V59.56a1.71,1.71,0,0,0,1.71,1.71h34.36a1.71,1.71,0,0,0,1.7-1.71V48.44a1.7,1.7,0,0,0-1.7-1.7h-3.62V45.09h3.62a1.7,1.7,0,0,0,1.7-1.7V32.27a1.7,1.7,0,0,0-1.7-1.7h-3.62V28.92Zm-.19,30.45h-34V48.63h34Zm-5.32-12.63H103.22V45.09h23.34Zm0-16.17H103.22V28.92h23.34Z" transform="translate(0)"/><path id="Path_546-2" data-name="Path 546-2" class="cls-2" d="M102.67,20.08v3a2.84,2.84,0,0,0,5.68,0v-3a2.84,2.84,0,0,0-5.68,0Zm3.79,0v3a.95.95,0,1,1-1.9,0v-3a1,1,0,1,1,1.9,0Z" transform="translate(0)"/><path id="Path_547-2" data-name="Path 547-2" class="cls-2" d="M108.35,39.35v-3a2.84,2.84,0,0,0-5.68,0v3a2.84,2.84,0,0,0,5.68,0Zm-3.79,0v-3a1,1,0,0,1,1.9,0v3a.95.95,0,1,1-1.9,0Z" transform="translate(0)"/><path id="Path_548-2" data-name="Path 548-2" class="cls-2" d="M105.51,49.64a2.85,2.85,0,0,0-2.84,2.85v3a2.84,2.84,0,0,0,5.68,0v-3A2.85,2.85,0,0,0,105.51,49.64Zm.95,5.88a.95.95,0,1,1-1.9,0v-3a1,1,0,0,1,1.9,0Z" transform="translate(0)"/><path id="Path_549-2" data-name="Path 549-2" class="cls-2" d="M110.69,21.66a2.72,2.72,0,0,0,2.72,2.71h11.88a2.72,2.72,0,0,0,0-5.43H113.41A2.73,2.73,0,0,0,110.69,21.66Zm15.42,0a.82.82,0,0,1-.82.82H113.41a.82.82,0,1,1,0-1.64h11.88a.82.82,0,0,1,.82.82Z" transform="translate(0)"/><path id="Path_550-2" data-name="Path 550-2" class="cls-2" d="M125.29,40.55a2.72,2.72,0,0,0,0-5.44H113.41a2.72,2.72,0,0,0,0,5.44Zm-12.7-2.72a.82.82,0,0,1,.82-.82h11.87a.82.82,0,0,1,0,1.64H113.41a.82.82,0,0,1-.82-.82Z" transform="translate(0)"/><path id="Path_551-2" data-name="Path 551-2" class="cls-2" d="M125.29,51.29H113.41a2.72,2.72,0,1,0,0,5.43h6.12a1,1,0,1,0,0-1.9h-6.12a.82.82,0,1,1,0-1.64h11.88a.82.82,0,0,1,0,1.64H124a1,1,0,0,0,0,1.9h1.28a2.72,2.72,0,0,0,0-5.43Z" transform="translate(0)"/></g></g><g id="server-3"><g id="Group_4633-3" data-name="Group 4633-3"><path id="Path_543-3" data-name="Path 543-3" class="cls-1" d="M36.07,28.92a1.7,1.7,0,0,0,1.7-1.7V16.1a1.71,1.71,0,0,0-1.7-1.71H32.4a.95.95,0,1,0,0,1.9h3.48V27H1.9V16.29H28a.95.95,0,1,0,0-1.9H1.71A1.71,1.71,0,0,0,0,16.1V27.22a1.7,1.7,0,0,0,1.71,1.7H5.32v1.65H1.71A1.7,1.7,0,0,0,0,32.27v3.64a.95.95,0,0,0,1.9,0V32.46h34V43.2H1.9V40.47A1,1,0,0,0,1,39.52a1,1,0,0,0-.95.95v2.92A1.7,1.7,0,0,0,1.71,45.1H5.32v1.64H1.71A1.71,1.71,0,0,0,0,48.44V59.56a1.71,1.71,0,0,0,1.71,1.71H36.07a1.71,1.71,0,0,0,1.7-1.71V48.44a1.7,1.7,0,0,0-1.7-1.7H32.45V45.09h3.62a1.7,1.7,0,0,0,1.7-1.7V32.27a1.7,1.7,0,0,0-1.7-1.7H32.45V28.92Zm-.19,30.45H1.9V48.63h34ZM30.56,46.74H7.22V45.09H30.56Zm0-16.17H7.22V28.92H30.56Z" transform="translate(0)"/><path id="Path_546-3" data-name="Path 546-3" class="cls-2" d="M6.67,20.08v3a2.84,2.84,0,0,0,5.68,0v-3a2.84,2.84,0,0,0-5.68,0Zm3.79,0v3a.95.95,0,0,1-1.9,0v-3a.95.95,0,1,1,1.9,0Z" transform="translate(0)"/><path id="Path_547-3" data-name="Path 547-3" class="cls-2" d="M12.35,39.35v-3a2.84,2.84,0,0,0-5.68,0v3a2.84,2.84,0,0,0,5.68,0Zm-3.79,0v-3a.95.95,0,1,1,1.9,0v3a1,1,0,0,1-1.9,0Z" transform="translate(0)"/><path id="Path_548-3" data-name="Path 548-3" class="cls-2" d="M9.51,49.64a2.85,2.85,0,0,0-2.84,2.85v3a2.84,2.84,0,0,0,5.68,0v-3A2.85,2.85,0,0,0,9.51,49.64Zm1,5.88a.95.95,0,1,1-1.9,0v-3a1,1,0,1,1,1.9,0Z" transform="translate(0)"/><path id="Path_549-3" data-name="Path 549-3" class="cls-2" d="M14.69,21.66a2.72,2.72,0,0,0,2.72,2.71H29.29a2.72,2.72,0,0,0,0-5.43H17.41A2.73,2.73,0,0,0,14.69,21.66Zm15.42,0a.82.82,0,0,1-.82.82H17.41a.82.82,0,0,1,0-1.64H29.29a.82.82,0,0,1,.82.82Z" transform="translate(0)"/><path id="Path_550-3" data-name="Path 550-3" class="cls-2" d="M29.29,40.55a2.72,2.72,0,0,0,0-5.44H17.41a2.72,2.72,0,0,0,0,5.44Zm-12.7-2.72a.82.82,0,0,1,.82-.82H29.28a.82.82,0,0,1,0,1.64H17.41a.82.82,0,0,1-.82-.82Z" transform="translate(0)"/><path id="Path_551-3" data-name="Path 551-3" class="cls-2" d="M29.29,51.29H17.41a2.72,2.72,0,1,0,0,5.43h6.12a1,1,0,0,0,0-1.9H17.41a.82.82,0,1,1,0-1.64H29.29a.82.82,0,1,1,0,1.64H28a1,1,0,0,0,0,1.9h1.28a2.72,2.72,0,0,0,0-5.43Z" transform="translate(0)"/></g></g></g></svg>