<svg id="Layer_1" data-name="Layer 1" xmlns="http://www.w3.org/2000/svg" viewBox="0 0 38.65 38.65"><defs><style>.cls-1{fill:#0e65f3;}.cls-2{fill:#48d8cf;}</style></defs><g id="rocket"><path id="Path_517" data-name="Path 517" class="cls-1" d="M37.86,0c-7.55-.13-16.15,3.81-21.6,9.93a20.46,20.46,0,0,0-14,6,.81.81,0,0,0,0,1.14.73.73,0,0,0,.46.23l6.2.89L8.15,19a.81.81,0,0,0,0,1.11L18.54,30.47a.8.8,0,0,0,1.1,0l.86-.77.89,6.21a.82.82,0,0,0,.57.62.88.88,0,0,0,.85-.23,20.34,20.34,0,0,0,5.91-13.95C34.84,16.93,38.82,8.32,38.64.79A.8.8,0,0,0,37.86,0ZM30.44,13.9a4,4,0,1,1,0-5.7,4,4,0,0,1,0,5.7Z" transform="translate(0 0)"/><path id="Path_518" data-name="Path 518" class="cls-2" d="M4.39,27.22C2.66,28.94.3,36.73,0,37.61a.81.81,0,0,0,.55,1,.59.59,0,0,0,.23,0,.66.66,0,0,0,.23,0c.88-.26,8.66-2.63,10.38-4.35a5,5,0,0,0-7-7Z" transform="translate(0 0)"/></g></svg>