<svg id="life-saver" xmlns="http://www.w3.org/2000/svg" viewBox="0 0 59.36 59.36"><defs><style>.cls-1{fill:#0e65f3;}.cls-2{fill:#1aaaa1;}</style></defs><g id="Group_4635" data-name="Group 4635"><path id="Path_552" data-name="Path 552" class="cls-1" d="M29.68,17.51a9.74,9.74,0,0,1,2.15.21L45.05,4.46a28.7,28.7,0,0,0-30.74,0L27.56,17.71A10.09,10.09,0,0,1,29.68,17.51Z" transform="translate(0 0)"/><path id="Path_553" data-name="Path 553" class="cls-1" d="M45.05,54.89,31.8,41.64a10.81,10.81,0,0,1-4.24,0L14.31,54.89A28.66,28.66,0,0,0,45.05,54.89Z" transform="translate(0 0)"/><path id="Path_554" data-name="Path 554" class="cls-1" d="M41.64,27.56a10.81,10.81,0,0,1,0,4.24L54.89,45.05a28.66,28.66,0,0,0,0-30.74Z" transform="translate(0 0)"/><path id="Path_555" data-name="Path 555" class="cls-2" d="M19,23.9A12.4,12.4,0,0,1,23.91,19L11.25,6.34a3.5,3.5,0,0,0-4.94,0,3.44,3.44,0,0,0,0,4.86Z" transform="translate(0 0)"/><path id="Path_556" data-name="Path 556" class="cls-2" d="M19,35.49,6.34,48.11A3.47,3.47,0,1,0,11,53.22l.21-.21L23.91,40.39A12.14,12.14,0,0,1,19,35.49Z" transform="translate(0 0)"/><path id="Path_557" data-name="Path 557" class="cls-2" d="M40.39,23.9,53,11.24a3.47,3.47,0,0,0,0-4.91l0,0a3.52,3.52,0,0,0-4.87,0L35.45,19A12.46,12.46,0,0,1,40.39,23.9Z" transform="translate(0 0)"/><path id="Path_558" data-name="Path 558" class="cls-2" d="M53.05,53a3.45,3.45,0,0,0,0-4.87L40.39,35.45a12.2,12.2,0,0,1-4.9,4.94L48.11,53a3.44,3.44,0,0,0,4.87,0Z" transform="translate(0 0)"/></g><path id="Path_559" data-name="Path 559" class="cls-1" d="M17.6,31.83c0-.69-.09-1.42-.09-2.15a10.81,10.81,0,0,1,.21-2.12L4.46,14.31A29.11,29.11,0,0,0,0,29.68,30.1,30.1,0,0,0,4.35,45.05Z" transform="translate(0 0)"/></svg>