<svg id="Layer_1" data-name="Layer 1" xmlns="http://www.w3.org/2000/svg" viewBox="0 0 52.63 42.38"><defs><style>.cls-1{fill:#0e65f3;}.cls-2{fill:#1aaaa1;stroke:#000;}</style></defs><g id="Group_6568" data-name="Group 6568"><g id="monitor"><g id="Group_4630" data-name="Group 4630"><g id="Group_4629" data-name="Group 4629"><path id="Path_538" data-name="Path 538" class="cls-1" d="M20.44,36.23l-4.72,6.15h21.8L32.8,36.23Z"/><path id="Path_539" data-name="Path 539" class="cls-1" d="M48.53,0H4.1A4.11,4.11,0,0,0,0,4.1V29.39a4.11,4.11,0,0,0,4.1,4.1H48.53a4.11,4.11,0,0,0,4.1-4.1V4.1A4.1,4.1,0,0,0,48.53,0Z"/></g></g></g><g id="sportive-car"><g id="Group_4631" data-name="Group 4631"><path id="Path_540" data-name="Path 540" class="cls-2" d="M16,16.13a2.48,2.48,0,0,0-2.47,2.51h0c0,.1,0,.21,0,.31a2.49,2.49,0,0,0,4.95-.15,1.48,1.48,0,0,0,0-.21A2.48,2.48,0,0,0,16,16.13Zm-.21.94v.72a.85.85,0,0,0-.22.09l-.51-.5A1.55,1.55,0,0,1,15.83,17.07Zm-1,.62.52.5a.85.85,0,0,0-.09.22h-.72A1.47,1.47,0,0,1,14.8,17.69Zm-.29,1.16h.73a.85.85,0,0,0,.09.22l-.5.51a1.51,1.51,0,0,1-.32-.72Zm.62,1,.5-.51a.85.85,0,0,0,.22.09v.72A1.62,1.62,0,0,1,15.13,19.87Zm2.47-1.48h-.71a.62.62,0,0,0-.1-.22l.5-.51A1.5,1.5,0,0,1,17.6,18.39Zm-1.34-1.32a1.47,1.47,0,0,1,.73.29l-.5.51a.85.85,0,0,0-.22-.09Zm0,3.09v-.72a.85.85,0,0,0,.22-.09l.51.5a1.5,1.5,0,0,1-.72.31Zm1-.61L16.8,19a.78.78,0,0,0,.09-.21h.72a1.62,1.62,0,0,1-.3.73Z"/><path id="Path_541" data-name="Path 541" class="cls-2" d="M36.14,16.13a2.49,2.49,0,0,0-2.46,2.51,1.63,1.63,0,0,0,0,.31,2.48,2.48,0,0,0,4.94-.14,1.55,1.55,0,0,0,0-.22,2.48,2.48,0,0,0-2.51-2.46Zm-.2.94v.72a1,1,0,0,0-.22.09l-.51-.5A1.59,1.59,0,0,1,35.94,17.07Zm-1,.62.51.5a.85.85,0,0,0-.09.22h-.71a1.47,1.47,0,0,1,.29-.73Zm-.29,1.16h.72a.85.85,0,0,0,.09.22l-.5.51A1.6,1.6,0,0,1,34.62,18.85Zm.62,1,.5-.51a.85.85,0,0,0,.22.09v.72a1.58,1.58,0,0,1-.72-.3Zm2.47-1.48H37a.85.85,0,0,0-.09-.22l.5-.51a1.5,1.5,0,0,1,.31.72Zm-1.34-1.32a1.54,1.54,0,0,1,.73.29l-.5.52a.51.51,0,0,0-.22-.09Zm0,3.09v-.72a.78.78,0,0,0,.21-.09l.51.5a1.42,1.42,0,0,1-.71.31Zm1-.61-.51-.5a1,1,0,0,0,.09-.22h.71a1.5,1.5,0,0,1-.29.73Z"/><path id="Path_542" data-name="Path 542" class="cls-2" d="M42.74,13.46a.21.21,0,0,0-.16-.08h-2.2a.21.21,0,0,0-.2.13l-.14.36s-6.21-2.26-7.59-2.74a24.33,24.33,0,0,0-5.78-.29,7.45,7.45,0,0,0-2.51.52C22.69,12,20.24,13,19,13.63a21.32,21.32,0,0,0-6.43,1,13.65,13.65,0,0,0-2,1.5L8.94,17a.62.62,0,0,0-.33.6L8.71,19a.62.62,0,0,0,.53.57l3.88.59.32,0A2.89,2.89,0,0,1,13.07,19a2.31,2.31,0,0,1,0-.37,3,3,0,0,1,6-.06,2.35,2.35,0,0,1,0,.26,3,3,0,0,1-.27,1l14.62,0a3,3,0,0,1-.24-.82,2.53,2.53,0,0,1,0-.38,3,3,0,0,1,6-.06,2.26,2.26,0,0,1,0,.26,2.63,2.63,0,0,1-.1.56h.14l2.63-.79a.62.62,0,0,0,.44-.52l.24-2a1.14,1.14,0,0,0-.15-.72l-.44-.76.68-.52A.2.2,0,0,0,42.7,14l.09-.37A.22.22,0,0,0,42.74,13.46Zm-11.82.36-6.67.2a1,1,0,0,0-1-.92l1.57-.94a3.69,3.69,0,0,1,1.87-.5c1.2,0,3.19,0,4.37.09a.6.6,0,0,1,.58.63.68.68,0,0,1-.07.27C31.26,13.24,30.92,13.82,30.92,13.82Z"/></g></g></g></svg>