<svg id="Layer_1" data-name="Layer 1" xmlns="http://www.w3.org/2000/svg" viewBox="0 0 53.24 48"><defs><style>.cls-1{fill:#20cfc5;opacity:0.82;isolation:isolate;}.cls-2{fill:#0e65f3;}</style></defs><g id="Group"><path id="Path_21" data-name="Path 21" class="cls-1" d="M28.19,17.06l-4.52-1.47c1.82-5.35,4.74-8.69,8.83-9.69C34.63,5.38,37.85,2,37.85,0h4.77c0,4.19-4.73,9.39-9,10.42C31.39,11,29.55,13.08,28.19,17.06Z" transform="translate(0)"/><path id="Combined_Shape" data-name="Combined Shape" class="cls-2" d="M45.58,48a6.35,6.35,0,0,1-4.72-2.1l-6.54-7.29H19L12.43,45.9a6.33,6.33,0,0,1-8.95.47l-.14-.12L2.23,45.19a7.19,7.19,0,0,1-1.65-8L8.36,19a7.19,7.19,0,0,1,8.11-4.19h20a7.18,7.18,0,0,1,8,4.11l8.11,18.2A7.2,7.2,0,0,1,51,45.24l-1.07,1A6.28,6.28,0,0,1,45.58,48ZM33.63,26.71A2.38,2.38,0,1,0,36,29.09,2.39,2.39,0,0,0,33.63,26.71ZM16.88,22a4.76,4.76,0,1,0,4.78,4.76A4.77,4.77,0,0,0,16.88,22Zm21.54,0a2.38,2.38,0,1,0,2.39,2.38A2.38,2.38,0,0,0,38.42,22Z" transform="translate(0)"/></g></svg>