<svg id="Layer_1" data-name="Layer 1" xmlns="http://www.w3.org/2000/svg" viewBox="0 0 47.04 47.04"><defs><style>.cls-1{fill:#0e65f3;}</style></defs><path id="instagram" class="cls-1" d="M38,47H9.09A9.09,9.09,0,0,1,0,38V9.09A9.1,9.1,0,0,1,9.09,0H38A9.1,9.1,0,0,1,47,9.09V38A9.09,9.09,0,0,1,38,47ZM5.81,17.64v19a4.51,4.51,0,0,0,4.51,4.51H36.65a4.5,4.5,0,0,0,4.5-4.51v-19h-7.5a11.6,11.6,0,0,1,1.63,5.88,11.76,11.76,0,1,1-23.51,0,11.6,11.6,0,0,1,1.63-5.88Zm17.71,0a5.88,5.88,0,1,0,5.88,5.88h0A5.88,5.88,0,0,0,23.52,17.64ZM40.41,5.9l-5.16,0,0,5.88,5.92,0V5.9Z"/></svg>