<svg id="Layer_1" data-name="Layer 1" xmlns="http://www.w3.org/2000/svg" viewBox="0 0 18 18"><defs><style>.cls-1{fill:#fff;}</style></defs><path id="instagram" class="cls-1" d="M14.52,18h-11A3.48,3.48,0,0,1,0,14.52v-11A3.48,3.48,0,0,1,3.48,0h11A3.48,3.48,0,0,1,18,3.48v11A3.48,3.48,0,0,1,14.52,18ZM2.22,6.75V14A1.73,1.73,0,0,0,4,15.75H14A1.74,1.74,0,0,0,15.75,14V6.75H12.88A4.49,4.49,0,1,1,4.5,9a4.45,4.45,0,0,1,.62-2.25ZM9,6.75A2.25,2.25,0,1,0,11.25,9,2.25,2.25,0,0,0,9,6.75Zm6.46-4.49h-2V4.51h2.26V2.26Z"/></svg>