<svg id="Layer_1" data-name="Layer 1" xmlns="http://www.w3.org/2000/svg" viewBox="0 0 16.96 25"><defs><style>.cls-1{fill:#0e65f3;}</style></defs><g id="Group_294" data-name="Group 294"><g id="Group_292" data-name="Group 292"><path id="Path_166" data-name="Path 166" class="cls-1" d="M8.48,0A8.5,8.5,0,0,0,0,8.48c0,1.88,1.11,4.74,3.48,9C5.1,20.39,6.72,22.84,6.78,23L8,24.71a.62.62,0,0,0,.88.18A.52.52,0,0,0,9,24.71L10.18,23c.06-.1,1.67-2.54,3.3-5.47,2.37-4.25,3.48-7.11,3.48-9A8.5,8.5,0,0,0,8.48,0Zm3.89,16.86c-1.61,2.89-3.18,5.28-3.25,5.38l-.64,1-.63-1c-.07-.1-1.66-2.51-3.26-5.38-2.2-3.95-3.32-6.77-3.32-8.38a7.21,7.21,0,0,1,14.42,0h0C15.7,10.09,14.58,12.91,12.37,16.86Z"/><path id="Path_167" data-name="Path 167" class="cls-1" d="M8.48,3.73a4.7,4.7,0,1,0,4.7,4.7h0A4.69,4.69,0,0,0,8.48,3.73Zm0,8.13a3.43,3.43,0,1,1,3.44-3.43A3.43,3.43,0,0,1,8.48,11.86Z"/></g></g></svg>