<svg id="Layer_1" data-name="Layer 1" xmlns="http://www.w3.org/2000/svg" viewBox="0 0 254.95 58.21"><defs><style>.cls-1,.cls-3{fill:#212752;}.cls-2{fill:aqua;}.cls-3{fill-rule:evenodd;}</style></defs><g id="Group_3" data-name="Group 3"><g id="Group_1" data-name="Group 1"><path id="Path_1" data-name="Path 1" class="cls-1" d="M128.14,48h6.47V34.89a10.4,10.4,0,0,1,.16-1.93,5.66,5.66,0,0,1,5.8-4.81,8.59,8.59,0,0,1,1.89.18v-6a6,6,0,0,0-1.52-.14,7.61,7.61,0,0,0-7,5.35h-.18l-.24-4.79h-5.6c.14,2.25.21,4.73.21,8.1Z" transform="translate(0 0)"/><rect id="Rectangle_1" data-name="Rectangle 1" class="cls-1" x="145.78" y="22.75" width="6.47" height="25.2"/><path id="Path_2" data-name="Path 2" class="cls-1" d="M174.63,35.3c0,4.94-2.4,8.3-6.5,8.3a5.84,5.84,0,0,1-5.67-4.45,8.57,8.57,0,0,1-.18-1.74V33.53a6.8,6.8,0,0,1,.23-1.61,6,6,0,0,1,5.77-4.71c4.16,0,6.35,3.62,6.35,8.1m6.54-.3c0-7.87-4.85-12.81-10.7-12.81a10,10,0,0,0-8.76,4.43h-.1l-.32-3.87h-5.67c.11,2.37.2,5.09.2,8.35v27.1h6.46V45.16h.1c1.31,2,4,3.36,7.19,3.36,5.82,0,11.6-4.38,11.6-13.52" transform="translate(0 0)"/><rect id="Rectangle_2" data-name="Rectangle 2" class="cls-1" x="184.11" y="13.13" width="6.47" height="34.83"/><path id="Path_3" data-name="Path 3" class="cls-1" d="M210.6,32.68H199.36c.28-2.58,1.94-6.14,5.91-6.14,4.33,0,5.36,3.81,5.33,6.14m6.09,1.76c0-5.51-2.7-12.25-11-12.25s-12.5,6.59-12.5,13.53c0,7.73,4.87,12.78,13.16,12.78a23.3,23.3,0,0,0,8.93-1.6l-.95-4.38a19.93,19.93,0,0,1-7.06,1.16c-4.13,0-7.72-2-7.89-6.56h17.09a13.36,13.36,0,0,0,.24-2.68" transform="translate(0 0)"/><path id="Path_4" data-name="Path 4" class="cls-1" d="M253.61,41.9a19.34,19.34,0,0,1-7.06,1.27c-7.77,0-12.31-4.88-12.31-12.57,0-8.38,5.19-12.82,12.4-12.82a17,17,0,0,1,6.9,1.36L255,14.06a20.14,20.14,0,0,0-8.57-1.53c-10.82,0-18.94,6.92-18.94,18.39,0,10.62,6.84,17.57,18.06,17.57a23,23,0,0,0,9.18-1.57Z" transform="translate(0 0)"/><path id="Path_5" data-name="Path 5" class="cls-1" d="M115.79,48h6.47V18.43h10.2V13.07H105.69v5.36h10.1Z" transform="translate(0 0)"/><path id="Path_6" data-name="Path 6" class="cls-2" d="M149,20.27a4.54,4.54,0,1,0-.06,0Z" transform="translate(0 0)"/></g><path id="Path_7" data-name="Path 7" class="cls-3" d="M64.58,58a35.2,35.2,0,0,1-17.35-4.6,2.44,2.44,0,0,0-2.67,0c-11.9,5.86-23.8,7.2-35.44-.58C1.55,47.74-1.83,37.85,1,29.71A15.92,15.92,0,0,1,16.32,18.89c1.56,0,2-.3,2.21-2,.88-8.5,8.83-16,17.65-16.79,13.46-1.15,23,5,29.71,16.24C66.8,17.92,67.16,20,68.43,21s3.22-.28,4.93-.22c6.83.21,12.93,6,14,13.45,1.41,9.8-2.9,17.42-12,21.32A27.75,27.75,0,0,1,64.58,58M27.13,52.52A29.31,29.31,0,0,0,39.47,50c1.36-.61,1.39-1,.28-1.94a5.6,5.6,0,0,1-2-2.92,3.3,3.3,0,0,1,1.94-3.73c1.47-.56,2.38.17,3.1,1.39a9.14,9.14,0,0,0,1.29,1.76c7.88,7.93,22,10,31.33,3.78a13.67,13.67,0,0,0,4.72-17.42,7.09,7.09,0,0,0-11.52-2.29,35.56,35.56,0,0,1-3,2.58c-1.9,1.4-3.71,1.27-4.92-.26s-1-3.35,1.07-4.74c1.81-1.21,1.74-2.49,1-4.15C58.44,12.58,51.15,7.14,40.84,6.23,33,5.54,26.66,10,25,16.93a7.26,7.26,0,0,0,1.54,6.88,17.47,17.47,0,0,1,2.16,3.09,2.86,2.86,0,0,1-.65,4,2.61,2.61,0,0,1-.28.17,3,3,0,0,1-4.25-.62l-.13-.19c-1-1.26-1.75-2.65-2.69-3.93a5,5,0,0,0-5.37-2.22,10.27,10.27,0,0,0-7.63,5.43,14.27,14.27,0,0,0,2.42,15.85c4.84,5.06,11,6.94,17,7.15" transform="translate(0 0)"/></g></svg>