<svg id="Group_4604" data-name="Group 4604" xmlns="http://www.w3.org/2000/svg" viewBox="0 0 151.54 139.59"><defs><style>.cls-1,.cls-2{fill:#fff;}.cls-2{fill-rule:evenodd;}</style></defs><g id="Group_1" data-name="Group 1"><path id="Path_1" data-name="Path 1" class="cls-1" d="M22.79,129.19h6.57V115.92a10.55,10.55,0,0,1,.16-2,5.77,5.77,0,0,1,5.89-4.9,9.54,9.54,0,0,1,1.92.19v-6.09a6.1,6.1,0,0,0-1.54-.14,7.73,7.73,0,0,0-7.1,5.43h-.18l-.24-4.86H22.58c.15,2.28.22,4.8.22,8.23Z" transform="translate(0 0)"/><rect id="Rectangle_1" data-name="Rectangle 1" class="cls-1" x="40.71" y="103.6" width="6.57" height="25.59"/><path id="Path_2" data-name="Path 2" class="cls-1" d="M70,116.34c0,5-2.44,8.43-6.6,8.43a5.93,5.93,0,0,1-5.76-4.53,8,8,0,0,1-.18-1.76v-3.94a6.42,6.42,0,0,1,.24-1.63,6.13,6.13,0,0,1,5.85-4.79c4.22,0,6.46,3.68,6.46,8.22m6.63-.3c0-8-4.93-13-10.87-13a10.08,10.08,0,0,0-8.89,4.5h-.11l-.32-3.93H50.69c.11,2.41.21,5.17.21,8.48V139.6h6.56V126.35h.1c1.33,2.07,4,3.42,7.3,3.42,5.9,0,11.78-4.45,11.78-13.73" transform="translate(0 0)"/><rect id="Rectangle_2" data-name="Rectangle 2" class="cls-1" x="79.63" y="93.83" width="6.57" height="35.36"/><path id="Path_3" data-name="Path 3" class="cls-1" d="M106.52,113.68H95.1c.29-2.62,2-6.24,6-6.24,4.4,0,5.44,3.87,5.41,6.24m6.18,1.79c0-5.6-2.74-12.44-11.18-12.44s-12.69,6.68-12.69,13.74c0,7.84,4.94,13,13.36,13a23.83,23.83,0,0,0,9.07-1.62l-1-4.46a20.15,20.15,0,0,1-7.17,1.19c-4.2,0-7.83-2-8-6.67h17.36a12.94,12.94,0,0,0,.23-2.71" transform="translate(0 0)"/><path id="Path_4" data-name="Path 4" class="cls-1" d="M150.18,123.05a19.43,19.43,0,0,1-7.16,1.28c-7.89,0-12.5-5-12.5-12.76,0-8.51,5.27-13,12.59-13a17.36,17.36,0,0,1,7,1.39l1.43-5.16a20.42,20.42,0,0,0-8.7-1.56c-11,0-19.24,7-19.24,18.68,0,10.78,7,17.84,18.34,17.84a23.59,23.59,0,0,0,9.33-1.6Z" transform="translate(0 0)"/><path id="Path_5" data-name="Path 5" class="cls-1" d="M10.26,129.19h6.56v-30H27.18V93.77H0v5.44H10.26Z" transform="translate(0 0)"/><path id="Path_6" data-name="Path 6" class="cls-1" d="M44,101.09a4.62,4.62,0,1,0-.07,0Z" transform="translate(0 0)"/><path id="Path_7" data-name="Path 7" class="cls-2" d="M111,86.2a52.24,52.24,0,0,1-25.8-6.85,3.68,3.68,0,0,0-4,0c-17.7,8.72-35.39,10.71-52.71-.86C17.28,71,12.25,56.29,16.44,44.19A23.66,23.66,0,0,1,39.24,28.1c2.32,0,3-.46,3.29-2.92,1.3-12.65,13.13-23.85,26.25-25C88.8-1.5,103,7.57,113,24.36c1.35,2.28,1.89,5.39,3.77,6.92s4.79-.42,7.34-.34c10.15.33,19.23,8.93,20.82,20,2.1,14.57-4.32,25.91-17.93,31.7a41.38,41.38,0,0,1-16,3.54M55.31,78.1a43.53,43.53,0,0,0,18.36-3.8c2-.91,2.07-1.54.42-2.89a8.3,8.3,0,0,1-3-4.34A4.91,4.91,0,0,1,74,61.52c2.19-.83,3.54.26,4.61,2.06a13.33,13.33,0,0,0,1.91,2.62c11.73,11.8,32.73,14.93,46.6,5.62a20.31,20.31,0,0,0,7-25.9c-3.38-7-11.44-8.59-17.13-3.4a52.9,52.9,0,0,1-4.5,3.83c-2.82,2.09-5.52,1.89-7.33-.38s-1.5-5,1.6-7c2.7-1.8,2.6-3.7,1.47-6.18C101.88,18.7,91,10.61,75.71,9.27c-11.74-1-21.09,5.61-23.52,15.9a10.75,10.75,0,0,0,2.3,10.23A26.56,26.56,0,0,1,57.69,40c1.41,2.55.83,4.78-1.38,6.17A4.51,4.51,0,0,1,50,45.25L49.8,45c-1.42-1.88-2.61-3.94-4-5.86a7.51,7.51,0,0,0-8-3.3c-5,1-8.94,3.37-11.36,8.09-3.78,7.32-2.34,17.34,3.61,23.56C37.27,75,46.37,77.78,55.31,78.1" transform="translate(0 0)"/></g></svg>