<svg id="icon_wear" data-name="icon wear" xmlns="http://www.w3.org/2000/svg" viewBox="0 0 28 28"><defs><style>.cls-1{fill:#48d8cf;}.cls-2{fill:#3d42df;}</style></defs><g id="Group"><path id="Oval_16" data-name="Oval 16" class="cls-1" d="M20.92,1.83a1.56,1.56,0,0,1-1.54,2.7,10.89,10.89,0,1,0-.05,19,1.56,1.56,0,0,1,1.58,2.68l-.05,0a14,14,0,1,1,.06-24.38Z" transform="translate(0 0)"/><path id="Combined_Shape" data-name="Combined Shape" class="cls-2" d="M24.11,23.33a3.89,3.89,0,0,1-3.89-3.89V8.56a3.89,3.89,0,0,1,7.78,0V19.44A3.89,3.89,0,0,1,24.11,23.33Zm0-14a2.34,2.34,0,1,0,2.34,2.34A2.33,2.33,0,0,0,24.11,9.33Z" transform="translate(0 0)"/></g></svg>