<svg id="Layer_1" data-name="Layer 1" xmlns="http://www.w3.org/2000/svg" viewBox="0 0 30.49 24.26"><defs><style>.cls-1{fill:#48d8cf;}.cls-2{fill:#3d42df;}</style></defs><g id="icon_wear" data-name="icon wear"><g id="Group"><path id="Combined_Shape" data-name="Combined Shape" class="cls-1" d="M23.16,21.29A12.39,12.39,0,0,0,24.9,3.86a12.86,12.86,0,0,0-1.73-1.73L25,0a15.14,15.14,0,0,1,2.1,21.3,15.73,15.73,0,0,1-2.12,2.12ZM0,11.7A15.14,15.14,0,0,1,5.53,0L7.32,2.13A12.38,12.38,0,0,0,5.6,19.56a12.86,12.86,0,0,0,1.73,1.73L5.55,23.42A15.16,15.16,0,0,1,0,11.7ZM19.62,17a6.88,6.88,0,0,0,1-9.68,7.05,7.05,0,0,0-1-1l1.78-2.13A9.65,9.65,0,0,1,22.78,17.8a10.51,10.51,0,0,1-1.38,1.37ZM5.54,11.7A9.64,9.64,0,0,1,9.07,4.25l1.79,2.13a6.88,6.88,0,0,0-1,9.68,7.05,7.05,0,0,0,1,1L9.1,19.17A9.61,9.61,0,0,1,5.54,11.7Z" transform="translate(0)"/><path id="Combined_Shape-2" data-name="Combined Shape-2" class="cls-2" d="M13.86,22.87v-8a3.46,3.46,0,1,1,2.77,0v8a1.39,1.39,0,1,1-2.77,0Z" transform="translate(0)"/></g></g></svg>