<svg id="Layer_1" data-name="Layer 1" xmlns="http://www.w3.org/2000/svg" viewBox="0 0 100.64 100.64"><defs><style>.cls-1{fill:#0e65f3;}.cls-1,.cls-2{fill-rule:evenodd;}.cls-2{fill:#fff;}</style></defs><g id="Group_6505" data-name="Group 6505"><path id="Path_4923" data-name="Path 4923" class="cls-1" d="M50.32,0A50.32,50.32,0,1,1,0,50.32,50.32,50.32,0,0,1,50.32,0Z" transform="translate(0)"/><path id="Path_4924" data-name="Path 4924" class="cls-2" d="M71.62,52.27,56.5,61l-.13.07-15,8.66a2.25,2.25,0,0,1-3.07-.83A2.31,2.31,0,0,1,38,67.78h0V32.86a2.26,2.26,0,0,1,2.25-2.26,2.32,2.32,0,0,1,1.27.39l15,8.65.12.07,15,8.66a2.25,2.25,0,0,1,.83,3.07,2.33,2.33,0,0,1-.82.83Z" transform="translate(0)"/></g></svg>