<svg id="Layer_1" data-name="Layer 1" xmlns="http://www.w3.org/2000/svg" viewBox="0 0 18.77 18.79"><defs><style>.cls-1{fill:#0e65f3;}.cls-2{fill:#48d7cf;}</style></defs><g id="telephone"><g id="Group_6468" data-name="Group 6468"><path id="Path_4914" data-name="Path 4914" class="cls-1" d="M14.28,12.42a1.33,1.33,0,0,0-1.86-.13l-.13.13L10.9,13.81a.27.27,0,0,1-.38.08h0c-.3-.16-.62-.3-.91-.47a14.39,14.39,0,0,1-3.48-3.17,8.29,8.29,0,0,1-1.25-2A.29.29,0,0,1,5,7.87c.47-.44.92-.91,1.38-1.37a1.33,1.33,0,0,0,.18-1.86l-.18-.17L5.24,3.37,4.11,2.25a1.32,1.32,0,0,0-1.87-.12l-.12.12c-.46.46-.91.93-1.4,1.38A2.29,2.29,0,0,0,0,5.17,6.47,6.47,0,0,0,.51,8a17.11,17.11,0,0,0,3,5,18.65,18.65,0,0,0,6.16,4.81,8.9,8.9,0,0,0,3.41,1A2.49,2.49,0,0,0,15.24,18c.4-.45.84-.85,1.27-1.28a1.32,1.32,0,0,0,.15-1.87.54.54,0,0,0-.15-.15Z" transform="translate(-0.01)"/><path id="Path_4915" data-name="Path 4915" class="cls-2" d="M13.53,9.31,15,9.06A6.46,6.46,0,0,0,9.5,3.75L9.3,5.2a5,5,0,0,1,4.23,4.11Z" transform="translate(-0.01)"/><path id="Path_4916" data-name="Path 4916" class="cls-2" d="M15.79,3a10.65,10.65,0,0,0-6.1-3l-.2,1.45a9.29,9.29,0,0,1,7.85,7.61l1.44-.25A10.78,10.78,0,0,0,15.79,3Z" transform="translate(-0.01)"/></g></g></svg>