<svg id="Layer_1" data-name="Layer 1" xmlns="http://www.w3.org/2000/svg" viewBox="0 0 67.59 81.79"><defs><style>.cls-1{fill:#3d42df;}.cls-2{fill:#75e1db;}.cls-3{fill:#48d8cf;}</style></defs><path class="cls-1" d="M59.62,32.69H29.15a9.22,9.22,0,1,0-13.91,0H8a8,8,0,0,0-8,8v9.41a1.59,1.59,0,0,0,3.18,0h0V40.66A4.79,4.79,0,0,1,8,35.88H52.61a4.78,4.78,0,0,1,4.78,4.78v8.61H40.81a8,8,0,0,0,0,15.94H57.39v8.61a4.79,4.79,0,0,1-4.78,4.78H8a4.79,4.79,0,0,1-4.79-4.78V64.4A1.59,1.59,0,0,0,0,64.4H0v9.42a8,8,0,0,0,8,8H59.62a8,8,0,0,0,8-8V40.66A8,8,0,0,0,59.62,32.69ZM22.2,20.62a6,6,0,1,1-6,6h0A6,6,0,0,1,22.2,20.62ZM59,35.88h.64a4.78,4.78,0,0,1,4.78,4.78v8.61H60.58V40.66A8,8,0,0,0,59,35.88ZM36,57.24a4.78,4.78,0,0,1,4.78-4.78H64.4V62H40.81A4.78,4.78,0,0,1,36,57.24ZM59.62,78.6H59a8,8,0,0,0,1.6-4.78V65.21h3.83v8.61A4.79,4.79,0,0,1,59.62,78.6Z" transform="translate(0 0)"/><path class="cls-2" d="M40.4,55.65a1.6,1.6,0,0,0,0,3.19,1.6,1.6,0,0,0,1.13-2.73A1.64,1.64,0,0,0,40.4,55.65Z" transform="translate(0 0)"/><path class="cls-3" d="M45.39,22a9.22,9.22,0,1,0-9.21-9.22h0A9.23,9.23,0,0,0,45.39,22Zm0-15.25a6,6,0,1,1-6,6A6,6,0,0,1,45.39,6.7Z" transform="translate(0 0)"/><path class="cls-3" d="M29.82,15.72a1.61,1.61,0,0,0,1.6-1.6V1.59a1.6,1.6,0,0,0-3.19,0V14.12a1.6,1.6,0,0,0,1.59,1.6Z" transform="translate(0 0)"/><path class="cls-3" d="M22.17,10.2a1.59,1.59,0,0,0,1.59-1.59v-7a1.59,1.59,0,0,0-3.18,0v7A1.59,1.59,0,0,0,22.17,10.2Z" transform="translate(0 0)"/><path class="cls-2" d="M1.59,58.83a1.59,1.59,0,1,0-1.12-.46,1.62,1.62,0,0,0,1.12.46Z" transform="translate(0 0)"/></svg>