<svg id="Layer_1" data-name="Layer 1" xmlns="http://www.w3.org/2000/svg" viewBox="0 0 68.03 48.19"><defs><style>.cls-1{fill:#0e65f3;}</style></defs><path id="youtube" class="cls-1" d="M66.53,6.89l.08.55a8.64,8.64,0,0,0-5.86-6h-.06C55.39,0,34,0,34,0S12.76,0,7.4,1.44A8.64,8.64,0,0,0,1.5,7.38v.06a94.72,94.72,0,0,0,.08,33.87l-.08-.56a8.6,8.6,0,0,0,5.86,6l.06,0c5.3,1.44,26.64,1.44,26.64,1.44s21.29,0,26.65-1.44a8.63,8.63,0,0,0,5.9-6v-.06a88.58,88.58,0,0,0,1.42-16V23.45a92.09,92.09,0,0,0-1.5-16.57ZM27.24,34.44V13.77L45,24.12Z" transform="translate(-0.01 0)"/></svg>