<svg id="Layer_1" data-name="Layer 1" xmlns="http://www.w3.org/2000/svg" viewBox="0 0 30.43 21.55"><defs><style>.cls-1{fill:#fff;}</style></defs><path id="youtube" class="cls-1" d="M29.75,3.08l0,.25A3.84,3.84,0,0,0,27.17.65h0C24.77,0,15.23,0,15.23,0S5.7,0,3.31.64A3.86,3.86,0,0,0,.67,3.3v0a42.61,42.61,0,0,0,0,15.15l0-.26A3.86,3.86,0,0,0,3.28,20.9h0c2.37.64,11.92.64,11.92.64s9.52,0,11.92-.64a3.86,3.86,0,0,0,2.64-2.66v0a40.9,40.9,0,0,0,.63-7.16v-.57a40.85,40.85,0,0,0-.67-7.41ZM12.18,15.41V6.16l8,4.63Z" transform="translate(0 0)"/></svg>